<svg width="143" height="40" viewBox="0 0 143 40" fill="none" xmlns="http://www.w3.org/2000/svg">
<path d="M18.604 22.712C18.604 21.9147 18.1187 21.4813 17.148 21.412H13.456C13.1787 21.412 13.04 21.3253 13.04 21.152C13.248 20.1467 13.612 19.3493 14.132 18.76C14.652 18.136 15.0853 17.7893 15.432 17.72C16.4027 17.5813 17.9973 17.512 20.216 17.512C22.4347 17.512 23.8213 17.5293 24.376 17.564C24.9307 17.564 25.2773 17.616 25.416 17.72C25.5547 17.8933 25.624 18.1013 25.624 18.344C25.624 18.552 25.5547 19.9907 25.416 22.66C25.312 25.2947 25.26 27.6693 25.26 29.784C25.26 31.864 25.3293 33.1813 25.468 33.736C25.6067 34.256 25.676 34.5853 25.676 34.724C25.676 35.2787 25.1907 35.8853 24.22 36.544C23.2493 37.168 21.776 37.7227 19.8 38.208C17.8587 38.6933 15.7093 38.936 13.352 38.936C10.1973 38.936 7.45867 37.844 5.136 35.66C3.33333 33.9267 2.08533 32.0373 1.392 29.992C0.733333 27.9467 0.404 25.0693 0.404 21.36C0.404 7.59733 5.448 0.716 15.536 0.716C17.2347 0.716 18.76 0.906666 20.112 1.288C21.464 1.63466 22.6427 2.34533 23.648 3.42C24.688 4.46 25.208 5.812 25.208 7.476C25.208 8.34267 25.0347 9.22667 24.688 10.128C24.064 11.9653 22.6773 12.884 20.528 12.884C19.3493 12.884 18.448 12.5893 17.824 12C17.2347 11.376 16.94 10.5267 16.94 9.452C16.94 9.036 17.1653 8.776 17.616 8.672C18.2747 8.29066 18.604 7.64933 18.604 6.748C18.604 5.812 18.2573 5.10133 17.564 4.616C16.8707 4.096 16.1427 3.836 15.38 3.836C13.716 3.836 12.312 4.44267 11.168 5.656C10.024 6.83467 9.192 8.39467 8.672 10.336C7.80533 13.8027 7.372 17.3387 7.372 20.944C7.372 26.8373 8.81067 30.7547 11.688 32.696C12.7627 33.4587 13.8893 33.84 15.068 33.84C17.252 33.84 18.4133 33.4413 18.552 32.644C18.656 31.5693 18.708 29.9053 18.708 27.652L18.604 22.712ZM33.4297 24.792L33.4817 26.092C33.4817 26.3 33.6204 26.404 33.8977 26.404C35.007 26.3 35.9777 26.0227 36.8097 25.572C37.6417 25.0867 38.2657 24.5493 38.6817 23.96C39.5137 22.6773 39.9644 21.568 40.0337 20.632L40.0857 20.008C40.0857 18.136 39.3404 17.2 37.8497 17.2C36.7404 17.2 35.839 17.6853 35.1457 18.656C34.0017 20.1813 33.4297 22.2267 33.4297 24.792ZM44.7657 31.708C44.7657 33.0253 44.4884 34.1867 43.9337 35.192C43.4137 36.1627 42.807 36.8907 42.1137 37.376C41.455 37.8267 40.675 38.1907 39.7737 38.468C38.6297 38.8147 37.5377 38.988 36.4977 38.988C33.5857 38.988 31.4364 37.896 30.0497 35.712C28.663 33.528 27.9697 30.7547 27.9697 27.392C27.9697 23.9947 28.819 20.9787 30.5177 18.344C32.251 15.7093 34.8337 14.392 38.2657 14.392C41.3857 14.392 43.5004 15.484 44.6097 17.668C45.0604 18.5 45.2857 19.2973 45.2857 20.06C45.2857 20.788 45.251 21.3773 45.1817 21.828C45.1124 22.244 44.8697 22.8853 44.4537 23.752C44.0377 24.6187 43.483 25.3987 42.7897 26.092C42.0964 26.7853 41.0044 27.444 39.5137 28.068C38.023 28.692 36.2724 29.108 34.2617 29.316C33.9844 29.316 33.8457 29.4373 33.8457 29.68C33.8457 29.992 33.9497 30.46 34.1577 31.084C34.4004 31.6733 34.6604 32.176 34.9377 32.592C35.7004 33.5627 36.827 34.048 38.3177 34.048C39.8084 34.048 41.0737 33.5627 42.1137 32.592C42.6684 32.072 43.119 31.4307 43.4657 30.668C43.6044 30.3907 43.7777 30.252 43.9857 30.252C44.2284 30.252 44.419 30.4427 44.5577 30.824C44.6964 31.2053 44.7657 31.5 44.7657 31.708ZM46.8542 17.72L47.0102 15.64C47.0449 15.328 47.2876 15.172 47.7382 15.172H49.5582L49.3502 11.012V10.804C49.3502 10.0067 49.9569 9.244 51.1702 8.516C52.3836 7.788 53.4929 7.424 54.4982 7.424C54.8102 7.424 54.9662 7.56267 54.9662 7.84V7.892C54.8276 8.828 54.6889 11.2373 54.5502 15.12C56.0756 15.12 57.0462 15.0853 57.4622 15.016C57.8782 14.9467 58.1036 14.912 58.1382 14.912C58.3809 14.912 58.5022 15.12 58.5022 15.536C58.5022 15.952 58.3116 16.4893 57.9302 17.148C57.5489 17.772 57.1329 18.1013 56.6822 18.136H54.4982C54.4636 19.3147 54.4462 21.308 54.4462 24.116C54.4462 26.8893 54.4636 29.1773 54.4982 30.98C54.5676 32.7827 54.6369 34.152 54.7062 35.088C54.7756 35.9893 54.8449 36.7173 54.9142 37.272C55.0182 37.8267 55.0876 38.2253 55.1222 38.468C55.1916 38.7107 55.2262 38.8667 55.2262 38.936C55.2262 39.2827 55.0009 39.4733 54.5502 39.508C53.1982 39.508 51.8462 39.3173 50.4942 38.936C49.1769 38.5547 48.5182 37.896 48.5182 36.96C49.2462 31.136 49.6102 24.8787 49.6102 18.188C48.6742 18.188 47.9636 18.2227 47.4782 18.292H47.4262C47.1142 18.292 46.9236 18.1013 46.8542 17.72ZM64.7231 25.832C64.5151 25.0693 63.9605 22.5907 63.0591 18.396C62.1578 14.2013 61.2391 10.856 60.3031 8.36C59.3671 5.864 58.2578 4.2 56.9751 3.368C56.6285 3.19467 56.4551 2.96933 56.4551 2.692C56.4551 2.03333 57.3911 1.496 59.2631 1.08C61.1351 0.663997 62.5738 0.455997 63.5791 0.455997C64.6191 0.455997 65.2431 0.750664 65.4511 1.34C66.0751 2.62266 66.8725 5.5 67.8431 9.972C69.8191 19.332 71.2751 25.2253 72.2111 27.652C72.4191 28.1373 72.6791 28.38 72.9911 28.38C73.3031 28.38 73.6151 28.0853 73.9271 27.496C74.2738 26.872 74.7245 26.0053 75.2791 24.896C75.8685 23.752 76.6485 21.7413 77.6191 18.864C78.5898 15.9867 79.0751 13.4907 79.0751 11.376C79.0751 8.11733 78.0005 5.812 75.8511 4.46C75.6778 4.252 75.5911 4.02666 75.5911 3.784C75.5911 3.056 76.5965 2.328 78.6071 1.6C80.6178 0.871999 82.4378 0.507999 84.0671 0.507999C85.1418 0.507999 85.6791 1.01067 85.6791 2.016C85.6791 5.136 85.0551 8.75866 83.8071 12.884C82.5591 16.9747 81.0685 20.788 79.3351 24.324C77.6018 27.8253 75.9898 30.8587 74.4991 33.424C72.1418 37.4107 70.6511 39.404 70.0271 39.404C69.7151 39.404 69.4205 39.1613 69.1431 38.676C68.1031 37.1853 66.8551 33.7707 65.3991 28.432L64.7231 25.832ZM91.7363 10.18L90.4883 10.128C89.5523 10.128 88.9456 10.3533 88.6683 10.804C88.599 10.908 88.5123 10.96 88.4083 10.96C87.9576 10.96 87.7323 10.1973 87.7323 8.672C87.7323 7.112 87.9576 6.124 88.4083 5.708C88.8936 5.292 89.7083 5.084 90.8523 5.084C92.031 5.084 92.8283 5.292 93.2443 5.708C93.6603 6.08933 93.8683 6.748 93.8683 7.684C93.8683 8.62 93.7123 9.27866 93.4003 9.66C93.0883 10.0067 92.5336 10.18 91.7363 10.18ZM87.5763 36.44L88.1483 24.324C88.1483 21.4467 87.819 19.488 87.1603 18.448C86.9523 18.1013 86.7096 17.8413 86.4323 17.668C86.2243 17.5987 86.1203 17.46 86.1203 17.252C86.1203 16.628 87.0043 16.0213 88.7723 15.432C90.5403 14.8427 91.823 14.548 92.6203 14.548C93.4523 14.548 93.8856 14.756 93.9203 15.172C93.9203 15.8653 93.8163 17.8413 93.6083 21.1C93.435 24.324 93.3483 27.7213 93.3483 31.292C93.3483 34.8627 93.5563 37.0813 93.9723 37.948C94.0763 38.1213 94.1283 38.2947 94.1283 38.468C94.1283 38.9187 93.4696 39.144 92.1523 39.144C90.835 39.144 89.483 38.7973 88.0963 38.104C87.7496 37.9307 87.5763 37.376 87.5763 36.44ZM113.158 24.064L113.366 25.884C113.366 26.5427 112.742 26.872 111.494 26.872C108.964 26.872 107.698 25.9187 107.698 24.012C107.698 23.5613 107.82 22.9373 108.062 22.14C108.305 21.3427 108.426 20.6493 108.426 20.06C108.426 19.4707 108.253 18.968 107.906 18.552C107.56 18.1013 107.057 17.876 106.398 17.876C105.74 17.876 105.168 18.1187 104.682 18.604C104.232 19.0547 103.954 19.5227 103.85 20.008L103.642 20.736C103.434 21.8107 103.33 23.6133 103.33 26.144C103.33 28.64 103.365 30.616 103.434 32.072C103.504 33.4933 103.573 34.4813 103.642 35.036C103.712 35.556 103.746 35.868 103.746 35.972C103.746 36.8387 103.209 37.532 102.134 38.052C101.06 38.6067 99.9849 38.884 98.9103 38.884C97.8356 38.884 97.2983 38.6587 97.2983 38.208L97.5583 36.596C98.0436 33.58 98.2863 29.6453 98.2863 24.792C98.2863 19.9387 98.1129 16.6453 97.7663 14.912C97.7663 14.496 98.1303 14.288 98.8583 14.288C100.73 14.288 101.978 14.9293 102.602 16.212C102.637 16.3507 102.689 16.42 102.758 16.42C102.862 16.42 103.105 16.264 103.486 15.952C104.63 15.016 105.982 14.548 107.542 14.548C108.513 14.548 109.484 14.7387 110.454 15.12C112.43 15.9173 113.418 17.5813 113.418 20.112L113.158 24.064ZM131.932 22.4L131.828 29.056C131.828 33.6667 132.331 36.44 133.336 37.376C133.475 37.5147 133.544 37.6707 133.544 37.844C133.544 38.364 132.417 38.624 130.164 38.624C127.945 38.624 126.767 37.9653 126.628 36.648C126.593 36.336 126.576 35.6947 126.576 34.724L126.784 26.404C126.784 26.1613 126.645 26.04 126.368 26.04C124.704 26.04 123.144 26.508 121.688 27.444C120.232 28.38 119.504 29.576 119.504 31.032C119.504 31.7947 119.712 32.436 120.128 32.956C120.544 33.476 121.047 33.736 121.636 33.736C122.26 33.736 122.763 33.6147 123.144 33.372C123.56 33.1293 123.803 32.9907 123.872 32.956C124.461 33.0253 124.756 33.6493 124.756 34.828C124.756 35.972 124.219 36.908 123.144 37.636C122.069 38.3293 120.943 38.676 119.764 38.676C118.585 38.676 117.563 38.468 116.696 38.052C115.864 37.636 115.257 37.168 114.876 36.648C114.495 36.128 114.183 35.5387 113.94 34.88C113.697 34.0827 113.576 33.3893 113.576 32.8C113.576 30.3733 114.339 28.432 115.864 26.976C117.389 25.52 119.348 24.48 121.74 23.856C124.895 23.232 126.541 22.66 126.68 22.14C126.784 21.7587 126.836 21.1173 126.836 20.216C126.836 18.3787 125.9 17.46 124.028 17.46C123.231 17.46 122.52 17.72 121.896 18.24C121.272 18.7253 120.96 19.3493 120.96 20.112L121.272 21.36C121.203 21.9493 120.579 22.296 119.4 22.4L118.828 22.452C117.788 22.452 116.956 22.192 116.332 21.672C115.743 21.152 115.448 20.4587 115.448 19.592C115.448 19.0373 115.621 18.4307 115.968 17.772C116.349 17.0787 116.817 16.524 117.372 16.108C117.927 15.692 118.776 15.328 119.92 15.016C121.099 14.6693 122.225 14.496 123.3 14.496C124.375 14.496 125.207 14.5307 125.796 14.6C126.385 14.6693 127.183 14.8427 128.188 15.12C129.228 15.3627 130.077 15.848 130.736 16.576C131.429 17.304 131.793 18.084 131.828 18.916C131.897 19.7133 131.932 20.8747 131.932 22.4ZM141.592 8.256L141.28 27.34C141.28 33.3027 141.47 36.8733 141.852 38.052C141.956 38.26 142.008 38.468 142.008 38.676C142.008 39.092 141.505 39.3 140.5 39.3C139.494 39.3 138.368 39.04 137.12 38.52C135.906 38.0347 135.3 37.3933 135.3 36.596C135.993 31.7427 136.34 25.26 136.34 17.148L136.132 9.192C136.062 8.22133 135.854 7.38933 135.508 6.696C135.196 6.00266 134.884 5.552 134.572 5.344L134.156 5.084C133.913 4.94533 133.792 4.78933 133.792 4.616C133.792 4.13067 134.537 3.54133 136.028 2.848C137.553 2.12 139.026 1.756 140.448 1.756C141.002 1.756 141.314 1.94666 141.384 2.328C141.522 3.22933 141.592 5.20533 141.592 8.256Z" fill="#362F74"/>
</svg>
