<svg width="523" height="321" viewBox="0 0 523 321" fill="none" xmlns="http://www.w3.org/2000/svg">
<g clip-path="url(#clip0)">
<path d="M502.769 21.2515H269.974V164.049H502.769V21.2515Z" fill="#E6E6E6"/>
<path d="M243.209 293.555L248.723 291.605C249.701 288.497 250.536 285.324 251.223 282.101L248.634 281.985L251.456 280.987C252.274 276.991 252.609 274.281 252.609 274.281C252.609 274.281 241.426 278.367 233.005 286.34L231.966 295.283L230.972 288.407C230.056 289.405 229.191 290.472 228.384 291.603C220.277 303.038 216.749 315.556 220.504 319.563C224.259 323.57 233.876 317.549 241.983 306.114C244.492 302.401 246.522 298.237 248.003 293.769L243.209 293.555Z" fill="#E6E6E6"/>
<path d="M34.3174 252.812L31.1747 237.605C25.6022 234.708 19.901 232.199 14.0981 230.089L13.7013 237.157L12.0922 229.371C4.89576 226.85 0 225.739 0 225.739C0 225.739 6.61308 256.59 20.4835 280.176L36.6455 283.659L24.0897 285.88C25.8352 288.456 27.711 290.895 29.7061 293.182C49.8836 316.159 72.3575 326.701 79.903 316.728C87.4486 306.756 77.2083 280.044 57.0308 257.067C50.7756 249.944 42.9177 244.228 35.052 239.729L34.3174 252.812Z" fill="#E6E6E6"/>
<path d="M64.207 236.298L67.9239 221.287C64.3743 215.273 60.5511 209.51 56.4724 204.024L53.155 209.822L55.0581 202.137C49.9598 195.415 46.2367 191.36 46.2367 191.36C46.2367 191.36 38.8991 221.964 40.8351 250.95L53.203 264.181L41.5189 258.12C41.9278 261.432 42.506 264.709 43.2503 267.932C50.842 300.397 65.639 323.673 76.3003 319.921C86.9615 316.169 89.4498 286.809 81.858 254.344C79.5044 244.28 75.1862 234.403 70.3483 225.564L64.207 236.298Z" fill="#E6E6E6"/>
<path d="M114.485 299.134L115.784 306.3L124.868 305.503L124.219 297.542L114.485 299.134Z" fill="#FFB8B8"/>
<path d="M91.7739 299.134L90.4763 306.3L81.3911 305.503L82.0405 297.542L91.7739 299.134Z" fill="#FFB8B8"/>
<path d="M89.1783 66.6771C95.9875 66.6771 101.508 59.9051 101.508 51.5515C101.508 43.1978 95.9875 36.4258 89.1783 36.4258C82.3691 36.4258 76.8491 43.1978 76.8491 51.5515C76.8491 59.9051 82.3691 66.6771 89.1783 66.6771Z" fill="#FFB8B8"/>
<path d="M81.3913 55.5318L78.1472 73.8421L94.3694 80.2107L93.7205 57.1245L81.3913 55.5318Z" fill="#FFB8B8"/>
<path d="M87.2316 76.2303L79.0675 68.6471C79.0675 68.6471 77.4981 65.8811 76.8492 68.2694C76.2003 70.6576 70.3601 79.4146 70.3601 79.4146L74.9025 144.694L109.294 145.49C109.294 145.49 95.8556 69.3922 94.1392 72.0151C92.4229 74.6381 87.8806 74.6381 87.2316 76.2303Z" fill="#D0CDE1"/>
<path d="M94.045 67.0752C94.045 67.0752 91.4494 70.2595 92.7472 72.6478C94.045 75.0361 93.0716 79.4647 94.3694 79.8377C95.6672 80.2106 93.0716 107.278 96.9651 114.442C100.858 121.607 98.9118 139.917 98.9118 143.101C98.9118 146.286 102.805 165.392 102.805 165.392C102.805 165.392 115.783 166.984 115.783 163.004C115.783 159.023 111.241 131.16 111.241 131.16L115.134 81.8028C115.134 81.8028 115.134 77.0263 110.592 75.4341C106.05 73.8419 96.9651 69.8615 96.9651 69.8615L94.045 67.0752Z" fill="#2F2E41"/>
<path d="M112.539 124.792H109.294C109.294 124.792 92.4228 126.384 93.7206 117.627C95.0184 108.87 107.997 115.238 107.997 115.238L111.89 117.627L112.539 124.792Z" fill="#FFB8B8"/>
<path d="M79.5831 65.7365C79.5831 65.7365 74.2534 69.8615 73.6045 71.4537C72.9556 73.0459 58.0308 81.8028 58.0308 88.1715C58.0308 94.5402 62.5731 101.705 62.5731 101.705L68.4133 171.761C68.4133 171.761 78.1468 175.741 78.7957 172.557C79.4446 169.372 82.0403 99.3167 80.7424 96.1324C79.4446 92.948 79.4446 72.2498 79.4446 72.2498L79.5831 65.7365Z" fill="#2F2E41"/>
<path d="M62.5732 181.314L61.9243 186.09C61.9243 186.09 62.5732 202.012 67.7645 201.216C72.9557 200.42 69.7112 184.498 69.7112 184.498L69.0623 181.314H62.5732Z" fill="#FFB8B8"/>
<path d="M70.3601 140.713C70.3601 140.713 71.009 212.361 74.2535 235.448C77.4981 258.534 78.7959 298.338 78.7959 298.338C78.7959 298.338 87.2316 299.931 88.5295 300.727C89.8273 301.523 93.0718 299.134 93.0718 299.134L93.7207 181.314L106.05 234.651C106.05 234.651 107.997 299.134 111.89 300.727C115.783 302.319 127.464 299.134 127.464 299.134C127.464 299.134 122.921 237.836 121.624 235.448C120.326 233.059 117.081 163.004 111.89 150.266L109.943 141.509C109.943 141.509 72.9557 143.101 70.3601 140.713Z" fill="#2F2E41"/>
<path d="M116.432 303.115C116.432 303.115 113.188 299.931 113.188 302.319C113.188 304.707 109.943 319.435 113.837 319.435C117.73 319.435 143.686 322.221 143.037 315.852C142.389 309.484 126.774 299.314 126.774 299.314C126.774 299.314 120.975 301.523 120.326 302.319C119.677 303.115 116.432 303.115 116.432 303.115Z" fill="#2F2E41"/>
<path d="M89.8273 303.115C89.8273 303.115 93.0718 299.931 93.0718 302.319C93.0718 304.707 96.3163 319.435 92.4229 319.435C88.5295 319.435 62.5733 322.221 63.2222 315.852C63.8711 309.484 79.4859 299.314 79.4859 299.314C79.4859 299.314 85.2849 301.523 85.9338 302.319C86.5828 303.115 89.8273 303.115 89.8273 303.115Z" fill="#2F2E41"/>
<path d="M110.592 81.0067L115.134 81.8028L124.219 113.646C124.219 113.646 126.815 129.568 122.921 131.956C119.028 134.344 111.679 133.878 111.679 133.878L110.592 116.034L113.837 116.831L110.592 108.87V81.0067Z" fill="#2F2E41"/>
<path d="M61.2753 84.9871L58.0308 88.1715C58.0308 88.1715 54.7863 128.772 55.4352 132.752C56.0841 136.733 59.9775 185.294 59.9775 185.294L71.0089 182.11L63.222 85.7832L61.2753 84.9871Z" fill="#2F2E41"/>
<path d="M75.5385 40.5577C75.5385 40.5577 71.9489 34.9712 75.5385 32.1779V33.5746C75.5385 33.5746 83.2305 23.0999 87.8457 25.8931L91.9481 24.4965V25.8931L94.5121 24.4965L93.9993 26.5915H97.5889L96.0505 27.9881C96.0505 27.9881 107.845 27.2898 100.666 37.7645C100.666 37.7645 104.078 44.0447 100.834 47.5386C100.834 47.5386 98.1017 39.8594 94.5121 41.9544C93.5397 42.5737 92.4428 42.8371 91.3518 42.7133C90.2608 42.5895 89.2218 42.0837 88.3585 41.256C88.3585 41.256 81.1793 40.5577 82.2049 44.7476C83.2305 48.9375 82.7177 50.3341 82.7177 50.3341C82.7177 50.3341 80.1537 52.4291 80.6665 53.8257C81.1794 55.2223 81.1793 59.4122 81.1793 59.4122C81.1793 59.4122 78.6153 54.524 77.5897 55.2223C76.5641 55.9206 70.9233 48.9375 75.5385 40.5577Z" fill="#2F2E41"/>
<path d="M216.218 90.5569L188.933 91.3883L185.26 51.4746H216.218V90.5569Z" fill="#2F2E41"/>
<path d="M187.336 142.299L177.376 227.014C177.376 227.014 168.745 257.153 168.081 271.815L165.425 292.994L177.376 296.252L189.992 236.789L207.255 183.027L205.263 244.934L201.279 295.437L213.231 297.881L220.534 233.53L228.502 186.285C228.502 186.285 234.477 145.557 225.182 141.484L187.336 142.299Z" fill="#2F2E41"/>
<path d="M176.577 287.795L175.248 307.621C175.248 307.621 189.471 317.709 184.907 319.664C180.344 321.619 174.098 319.104 172.82 318.659C171.471 318.19 168.952 317.441 167.046 316.888C166.164 316.64 165.37 316.052 164.78 315.21C164.19 314.368 163.836 313.316 163.768 312.209L163.765 312.136C163.65 309.696 168.137 288.496 168.137 288.496L176.577 287.795Z" fill="#2F2E41"/>
<path d="M211.115 288.291L212.234 307.249C212.234 307.249 228.43 314.63 224.255 317.62C220.08 320.609 213.558 319.604 212.234 319.467C209.795 319.215 203.723 318.964 203.723 318.964C203.723 318.964 202.601 320.156 202.108 317.788C201.615 315.42 202.765 294.269 202.765 294.269L211.115 288.291Z" fill="#2F2E41"/>
<path d="M201.279 73.8752C208.246 73.8752 213.894 66.946 213.894 58.3985C213.894 49.8509 208.246 42.9217 201.279 42.9217C194.312 42.9217 188.664 49.8509 188.664 58.3985C188.664 66.946 194.312 73.8752 201.279 73.8752Z" fill="#FFB8B8"/>
<path d="M193.976 67.3586L191.32 85.2793L202.607 91.796L205.263 68.9881L193.976 67.3586Z" fill="#FFB8B8"/>
<path d="M192.647 152.074L206.591 164.292C206.591 164.292 212.567 183.027 217.214 179.769C221.862 176.511 211.903 160.219 211.903 160.219L200.615 146.372L192.647 152.074Z" fill="#FFB8B8"/>
<path d="M232.486 146.372L233.814 156.146C233.814 156.146 230.494 176.511 226.51 172.438C222.526 168.365 227.838 155.332 227.838 155.332L227.174 147.186L232.486 146.372Z" fill="#FFB8B8"/>
<path d="M201.279 86.9083L199.951 80.3918L191.984 75.5044L189.328 79.5772L180.696 82.8355L190.656 148.001C190.656 148.001 224.518 150.445 225.182 143.928C225.846 137.411 218.542 119.491 218.542 119.491C218.542 119.491 220.534 110.531 219.87 105.643L217.214 86.0937L206.591 82.0209L204.165 78.4199L201.943 82.8355L201.279 86.9083Z" fill="#D0CDE1"/>
<path d="M182.688 84.4646L180.696 82.8354C180.696 82.8354 176.712 83.65 175.384 90.1666C174.056 96.6831 175.384 126.007 178.704 131.709C182.024 137.411 191.32 154.517 191.32 154.517L203.935 147.186L190.656 128.451L187.336 104.829L182.688 84.4646Z" fill="#D0CDE1"/>
<path d="M211.903 87.7229L217.214 86.0938C217.214 86.0938 220.534 87.7229 221.862 93.4249C223.19 99.1268 230.494 127.637 229.83 130.08C229.166 132.524 235.805 148.815 235.805 148.815L226.51 149.63L221.198 132.524L215.886 115.418L211.903 87.7229Z" fill="#D0CDE1"/>
<path d="M179.414 73.0961C182.075 71.3037 183.313 67.2808 183.401 63.5587C183.489 59.8366 182.753 56.1529 182.696 52.4299C182.666 51.6683 182.719 50.9051 182.853 50.1606C183.074 49.2364 183.417 48.3633 183.87 47.5768C187.33 41.0731 193.344 36.4982 199.679 36.4263C200.594 36.4116 201.503 36.6165 202.354 37.0296C203.009 37.3514 203.223 37.312 203.348 38.2985C204.849 37.6912 206.476 37.7547 207.942 38.4777C209.395 39.202 210.749 40.1916 211.96 41.413C212.68 42.0695 213.358 42.7907 213.991 43.5706C217.339 47.8252 218.11 54.3825 217.14 60.1751C216.825 62.0584 218.337 63.8765 219.589 65.0332C220.841 66.1899 222.286 67.2521 222.901 69.0205C223.492 70.7217 223.168 72.6673 223.287 74.5109C223.42 76.2537 223.948 77.9159 224.811 79.31C225.674 80.7042 226.837 81.7746 228.17 82.4007C227.898 82.8 227.543 83.1018 227.143 83.2744C226.743 83.447 226.313 83.4839 225.897 83.3813C225.029 83.157 224.217 82.6829 223.529 81.998C220.938 79.6427 219.084 76.2682 218.277 72.438C217.909 74.4895 218.051 76.6055 218.065 78.7059C218.033 81.05 218.385 83.3781 219.1 85.5521C219.827 87.7366 221.159 89.5362 222.862 90.6342C221.22 91.6206 219.41 90.9057 218.019 89.4506C216.685 87.8975 215.722 85.928 215.232 83.7538C214.298 80.2832 213.92 76.6243 214.117 72.9776C212.589 76.1323 212.031 79.8527 212.543 83.4678C213.077 87.1535 214.646 90.4938 216.977 92.9098C212.913 92.8675 208.916 91.6326 205.32 89.3082C204.391 88.7919 203.573 88.0187 202.929 87.0492C201.772 85.08 202.046 82.3943 202.37 79.9996C202.627 78.1062 200.698 75.3689 201.803 74.0093C202.131 73.6115 202.569 73.3803 203.03 73.362C204.691 73.2095 206.301 72.5907 207.736 71.5532C209.171 70.5158 210.392 69.0875 211.305 67.3788C212.579 65.0293 213.303 62.296 213.397 59.4767C213.396 57.4066 213.031 55.3612 212.326 53.4802C211.622 51.5991 210.594 49.9269 209.315 48.5779C208.035 47.2288 206.533 46.2346 204.911 45.6633C203.289 45.092 201.586 44.9571 199.917 45.2678C198.249 45.5784 196.655 46.3273 195.244 47.4633C193.834 48.5992 192.64 50.0955 191.744 51.8497C190.848 53.6039 190.271 55.5748 190.054 57.6275C189.836 59.6803 189.982 61.7666 190.482 63.7438C190.88 65.3349 191.165 66.9653 191.335 68.6167C191.535 70.5331 191.853 72.4281 192.286 74.2855C193.122 77.8552 194.537 81.4975 197.157 83.3595C196.241 83.8407 195.257 84.0964 194.26 84.1119C190.974 84.5562 187.517 84.4581 184.542 82.6871C181.567 80.916 179.202 77.1445 179.414 73.0961Z" fill="#2F2E41"/>
<path d="M186.586 57.2959C196.026 52.6543 205.332 51.6642 214.396 57.2959V47.9401C214.396 46.3241 213.872 44.7742 212.941 43.6314C212.009 42.4887 210.746 41.8467 209.429 41.8467H190.51C189.995 41.8467 189.485 41.9712 189.009 42.2131C188.533 42.455 188.1 42.8096 187.736 43.2566C187.371 43.7036 187.082 44.2343 186.885 44.8184C186.688 45.4024 186.586 46.0284 186.586 46.6606V57.2959Z" fill="#2F2E41"/>
<path d="M189.524 63.0892C190.293 63.0892 190.915 61.8665 190.915 60.3582C190.915 58.8499 190.293 57.6272 189.524 57.6272C188.756 57.6272 188.133 58.8499 188.133 60.3582C188.133 61.8665 188.756 63.0892 189.524 63.0892Z" fill="#FFB8B8"/>
<path d="M306.434 319.554H0V321H306.434V319.554Z" fill="#3F3D56"/>
<path d="M523 144.244H289.026V0H523V144.244ZM290.205 142.798H521.821V1.44591H290.205V142.798Z" fill="#3F3D56"/>
<path d="M405.335 117.329C405.334 119.636 404.775 121.89 403.73 123.808C402.684 125.725 401.199 127.219 399.461 128.101C397.724 128.983 395.812 129.214 393.968 128.763C392.124 128.313 390.43 127.202 389.1 125.571C387.771 123.939 386.865 121.861 386.498 119.599C386.131 117.336 386.318 114.991 387.037 112.859C387.756 110.728 388.974 108.906 390.537 107.623C392.1 106.34 393.938 105.655 395.818 105.653C397.069 105.649 398.308 105.948 399.464 106.533C400.621 107.118 401.671 107.978 402.556 109.063C403.44 110.148 404.141 111.437 404.618 112.856C405.095 114.274 405.339 115.794 405.335 117.329Z" fill="#362F74"/>
<path opacity="0.3" d="M405.335 117.329C405.334 119.636 404.775 121.89 403.73 123.808C402.684 125.725 401.199 127.219 399.461 128.101C397.724 128.983 395.812 129.214 393.968 128.763C392.124 128.313 390.43 127.202 389.1 125.571C387.771 123.939 386.865 121.861 386.498 119.599C386.131 117.336 386.318 114.991 387.037 112.859C387.756 110.728 388.974 108.906 390.537 107.623C392.1 106.34 393.938 105.655 395.818 105.653C397.069 105.649 398.308 105.948 399.464 106.533C400.621 107.118 401.671 107.978 402.556 109.063C403.44 110.148 404.141 111.437 404.618 112.856C405.095 114.274 405.339 115.794 405.335 117.329Z" fill="black"/>
<path d="M422.572 58.4729C422.59 62.2885 421.95 66.0656 420.693 69.5558C420.148 71.0581 419.495 72.4977 418.742 73.8574C417.181 76.6256 415.308 79.1084 413.179 81.2316C412.814 81.6075 412.413 81.9979 411.877 82.5039C411.205 83.1185 410.456 83.7619 409.596 84.4559C408.077 85.6613 406.615 86.972 405.217 88.3816C404.389 89.1741 403.67 90.1263 403.09 91.2011C402.365 92.7555 402 95.763 402 100.144V100.867H386.113V97.4836C386.113 94.8376 386.166 92.6109 386.266 90.6734C386.338 88.9176 386.487 87.1679 386.714 85.4319C386.869 83.9051 387.244 82.4241 387.821 81.058C388.864 78.9253 391.381 76.0263 395.506 72.1946C395.683 72.0355 395.86 71.8692 396.042 71.703C396.213 71.5584 396.378 71.4066 396.549 71.2475C397.978 70.0023 399.294 68.5722 400.474 66.9821C400.818 66.4868 401.137 65.9652 401.428 65.4205L401.505 65.2759C402.429 63.2683 402.882 60.9863 402.813 58.6825C402.818 58.0997 402.786 57.5172 402.719 56.9402C402.536 54.6895 401.684 52.6001 400.326 51.0697C398.853 49.4132 396.954 48.4412 394.958 48.3225C394.705 48.2936 394.469 48.2864 394.227 48.2864C393.288 48.2799 392.352 48.4159 391.44 48.6912C389.73 49.2085 388.197 50.3719 387.055 52.0168C386.451 52.8927 385.936 53.8567 385.523 54.887C384.131 58.8272 383.241 63.0064 382.883 67.2784L382.824 68.0375L367.868 63.1503V55.0605C367.939 54.7351 368.015 54.4098 368.098 54.0917C369.053 50.0344 370.574 46.2111 372.594 42.7919C373.458 41.3409 374.43 39.9927 375.499 38.765C375.753 38.4541 376.03 38.1505 376.307 37.8541C378.106 35.9374 380.106 34.323 382.253 33.0536L382.441 32.9452C386.508 30.6395 390.944 29.4833 395.423 29.5617C395.889 29.5617 396.437 29.569 396.979 29.6051C401.43 29.7435 405.799 31.11 409.761 33.6031C411.54 34.7329 413.207 36.1108 414.729 37.7094C418.998 41.9792 421.748 48.1182 422.395 54.8291C422.514 56.0382 422.573 57.255 422.572 58.4729Z" fill="#362F74"/>
<path opacity="0.3" d="M422.572 58.4729C422.59 62.2885 421.95 66.0656 420.693 69.5558C420.148 71.0581 419.495 72.4977 418.742 73.8574C417.181 76.6256 415.308 79.1084 413.179 81.2316C412.814 81.6075 412.413 81.9979 411.877 82.5039C411.205 83.1185 410.456 83.7619 409.596 84.4559C408.077 85.6613 406.615 86.972 405.217 88.3816C404.389 89.1741 403.67 90.1263 403.09 91.2011C402.365 92.7555 402 95.763 402 100.144V100.867H386.113V97.4836C386.113 94.8376 386.166 92.6109 386.266 90.6734C386.338 88.9176 386.487 87.1679 386.714 85.4319C386.869 83.9051 387.244 82.4241 387.821 81.058C388.864 78.9253 391.381 76.0263 395.506 72.1946C395.683 72.0355 395.86 71.8692 396.042 71.703C396.213 71.5584 396.378 71.4066 396.549 71.2475C397.978 70.0023 399.294 68.5722 400.474 66.9821C400.818 66.4868 401.137 65.9652 401.428 65.4205L401.505 65.2759C402.429 63.2683 402.882 60.9863 402.813 58.6825C402.818 58.0997 402.786 57.5172 402.719 56.9402C402.536 54.6895 401.684 52.6001 400.326 51.0697C398.853 49.4132 396.954 48.4412 394.958 48.3225C394.705 48.2936 394.469 48.2864 394.227 48.2864C393.288 48.2799 392.352 48.4159 391.44 48.6912C389.73 49.2085 388.197 50.3719 387.055 52.0168C386.451 52.8927 385.936 53.8567 385.523 54.887C384.131 58.8272 383.241 63.0064 382.883 67.2784L382.824 68.0375L367.868 63.1503V55.0605C367.939 54.7351 368.015 54.4098 368.098 54.0917C369.053 50.0344 370.574 46.2111 372.594 42.7919C373.458 41.3409 374.43 39.9927 375.499 38.765C375.753 38.4541 376.03 38.1505 376.307 37.8541C378.106 35.9374 380.106 34.323 382.253 33.0536L382.441 32.9452C386.508 30.6395 390.944 29.4833 395.423 29.5617C395.889 29.5617 396.437 29.569 396.979 29.6051C401.43 29.7435 405.799 31.11 409.761 33.6031C411.54 34.7329 413.207 36.1108 414.729 37.7094C418.998 41.9792 421.748 48.1182 422.395 54.8291C422.514 56.0382 422.573 57.255 422.572 58.4729Z" fill="black"/>
<path d="M398.853 117.329C398.852 119.636 398.293 121.89 397.248 123.808C396.202 125.725 394.717 127.219 392.979 128.101C391.242 128.983 389.33 129.214 387.486 128.763C385.642 128.313 383.948 127.202 382.618 125.571C381.288 123.939 380.383 121.861 380.016 119.599C379.648 117.336 379.836 114.991 380.555 112.859C381.274 110.728 382.492 108.906 384.055 107.623C385.618 106.34 387.456 105.655 389.336 105.653C390.587 105.649 391.826 105.948 392.982 106.533C394.138 107.118 395.189 107.978 396.073 109.063C396.958 110.148 397.659 111.437 398.136 112.856C398.613 114.274 398.857 115.794 398.853 117.329Z" fill="#362F74"/>
<path d="M416.09 58.4729C416.108 62.2885 415.467 66.0656 414.21 69.5558C413.666 71.0581 413.013 72.4977 412.26 73.8574C410.699 76.6256 408.826 79.1084 406.697 81.2316C406.331 81.6075 405.931 81.9979 405.394 82.5039C404.722 83.1185 403.974 83.7619 403.114 84.4559C401.595 85.6613 400.133 86.972 398.735 88.3816C397.906 89.1741 397.188 90.1263 396.608 91.2011C395.883 92.7555 395.518 95.763 395.518 100.144V100.867H379.63V97.4836C379.63 94.8376 379.683 92.6109 379.783 90.6734C379.856 88.9176 380.005 87.1679 380.231 85.4319C380.387 83.9051 380.762 82.4241 381.339 81.058C382.382 78.9253 384.898 76.0263 389.024 72.1946C389.2 72.0355 389.377 71.8692 389.56 71.703C389.731 71.5584 389.896 71.4066 390.067 71.2475C391.496 70.0023 392.811 68.5722 393.991 66.9821C394.336 66.4868 394.655 65.9652 394.946 65.4205L395.023 65.2759C395.946 63.2683 396.399 60.9863 396.331 58.6825C396.335 58.0997 396.304 57.5172 396.237 56.9402C396.053 54.6895 395.202 52.6001 393.844 51.0697C392.371 49.4132 390.472 48.4412 388.476 48.3225C388.222 48.2936 387.987 48.2864 387.745 48.2864C386.806 48.2799 385.869 48.4159 384.957 48.6912C383.248 49.2085 381.714 50.3719 380.573 52.0168C379.968 52.8927 379.454 53.8567 379.041 54.887C377.98 57.4824 377.291 60.9236 376.99 65.1096L376.931 65.8687L360.113 62.9262L360.195 62.2105C360.491 59.4619 360.966 56.747 361.616 54.0917C362.57 50.0344 364.092 46.2111 366.112 42.7919C366.975 41.3409 367.948 39.9927 369.017 38.765C369.27 38.4541 369.547 38.1505 369.824 37.8541C371.624 35.9374 373.623 34.323 375.77 33.0536L375.959 32.9452C380.025 30.6395 384.462 29.4833 388.941 29.5617C389.407 29.5617 389.955 29.569 390.497 29.6051C394.948 29.7435 399.317 31.11 403.279 33.6031C405.058 34.7329 406.725 36.1108 408.246 37.7094C412.516 41.9792 415.265 48.1182 415.913 54.8291C416.031 56.0382 416.09 57.255 416.09 58.4729Z" fill="#362F74"/>
</g>
<defs>
<clipPath id="clip0">
<rect width="523" height="321" fill="white"/>
</clipPath>
</defs>
</svg>
