<svg width="20" height="21" viewBox="0 0 20 21" fill="none" xmlns="http://www.w3.org/2000/svg">
<path d="M8.55295 17.3848C10.4506 17.3844 12.2936 16.7388 13.7884 15.5507L18.4883 20.3272L20 18.7908L15.3002 14.0143C16.4698 12.495 17.1054 10.6215 17.1059 8.69241C17.1059 3.89963 13.2688 0 8.55295 0C3.83707 0 0 3.89963 0 8.69241C0 13.4852 3.83707 17.3848 8.55295 17.3848ZM8.55295 2.1731C12.0907 2.1731 14.9677 5.09701 14.9677 8.69241C14.9677 12.2878 12.0907 15.2117 8.55295 15.2117C5.01523 15.2117 2.13824 12.2878 2.13824 8.69241C2.13824 5.09701 5.01523 2.1731 8.55295 2.1731Z" fill="white"/>
</svg>
